<mxfile host="app.diagrams.net" agent="Mozilla/5.0 (Windows NT 10.0; Win64; x64) AppleWebKit/537.36 (KHTML, like Gecko) Chrome/127.0.0.0 Safari/537.36" version="24.7.7">
  <diagram id="Ht1M8jgEwFfnCIfOTk4-" name="Page-1">
    <mxGraphModel dx="4025" dy="1702" grid="1" gridSize="10" guides="1" tooltips="1" connect="1" arrows="1" fold="1" page="1" pageScale="1" pageWidth="1169" pageHeight="827" math="0" shadow="0">
      <root>
        <mxCell id="0" />
        <mxCell id="1" parent="0" />
        <mxCell id="UEzPUAAOIrF-is8g5C7q-175" value="&lt;font style=&quot;font-size: 16px;&quot;&gt;AWS Cloud&lt;/font&gt;" style="points=[[0,0],[0.25,0],[0.5,0],[0.75,0],[1,0],[1,0.25],[1,0.5],[1,0.75],[1,1],[0.75,1],[0.5,1],[0.25,1],[0,1],[0,0.75],[0,0.5],[0,0.25]];outlineConnect=0;gradientColor=none;html=1;whiteSpace=wrap;fontSize=12;fontStyle=0;shape=mxgraph.aws4.group;grIcon=mxgraph.aws4.group_aws_cloud_alt;strokeColor=#232F3E;fillColor=none;verticalAlign=top;align=left;spacingLeft=30;fontColor=#232F3E;dashed=0;labelBackgroundColor=#ffffff;container=1;pointerEvents=0;collapsible=0;recursiveResize=0;" parent="1" vertex="1">
          <mxGeometry x="-1790" y="-780" width="610" height="428.5" as="geometry" />
        </mxCell>
        <mxCell id="46HvSfPG__gokCE_OxBl-6" value="&lt;font style=&quot;font-size: 16px;&quot;&gt;CRUD&amp;nbsp;&lt;/font&gt;&lt;div&gt;&lt;font style=&quot;font-size: 16px;&quot;&gt;User function&lt;/font&gt;&lt;/div&gt;" style="sketch=0;outlineConnect=0;fontColor=#232F3E;gradientColor=none;fillColor=#ED7100;strokeColor=none;dashed=0;verticalLabelPosition=bottom;verticalAlign=top;align=center;html=1;fontSize=12;fontStyle=0;aspect=fixed;pointerEvents=1;shape=mxgraph.aws4.lambda_function;" vertex="1" parent="UEzPUAAOIrF-is8g5C7q-175">
          <mxGeometry x="317" y="280" width="73" height="73" as="geometry" />
        </mxCell>
        <mxCell id="46HvSfPG__gokCE_OxBl-3" value="&lt;font style=&quot;font-size: 16px;&quot;&gt;&lt;b&gt;API Gateway&lt;/b&gt;&lt;/font&gt;" style="sketch=0;points=[[0,0,0],[0.25,0,0],[0.5,0,0],[0.75,0,0],[1,0,0],[0,1,0],[0.25,1,0],[0.5,1,0],[0.75,1,0],[1,1,0],[0,0.25,0],[0,0.5,0],[0,0.75,0],[1,0.25,0],[1,0.5,0],[1,0.75,0]];outlineConnect=0;fontColor=#232F3E;fillColor=#E7157B;strokeColor=#ffffff;dashed=0;verticalLabelPosition=bottom;verticalAlign=top;align=center;html=1;fontSize=12;fontStyle=0;aspect=fixed;shape=mxgraph.aws4.resourceIcon;resIcon=mxgraph.aws4.api_gateway;" vertex="1" parent="UEzPUAAOIrF-is8g5C7q-175">
          <mxGeometry x="80" y="154.25" width="78" height="78" as="geometry" />
        </mxCell>
        <mxCell id="46HvSfPG__gokCE_OxBl-25" style="edgeStyle=orthogonalEdgeStyle;rounded=0;orthogonalLoop=1;jettySize=auto;html=1;entryX=0;entryY=0.5;entryDx=0;entryDy=0;entryPerimeter=0;strokeWidth=2;strokeColor=#808080;startArrow=classic;startFill=1;exitX=1;exitY=0.5;exitDx=0;exitDy=0;exitPerimeter=0;flowAnimation=1;" edge="1" parent="UEzPUAAOIrF-is8g5C7q-175" source="46HvSfPG__gokCE_OxBl-3" target="46HvSfPG__gokCE_OxBl-4">
          <mxGeometry relative="1" as="geometry">
            <mxPoint x="248" y="205" as="sourcePoint" />
            <mxPoint x="330" y="205" as="targetPoint" />
          </mxGeometry>
        </mxCell>
        <mxCell id="UEzPUAAOIrF-is8g5C7q-180" value="&lt;font style=&quot;font-size: 16px;&quot;&gt;&lt;b&gt;CloudWatch&lt;/b&gt;&lt;/font&gt;" style="outlineConnect=0;fontColor=#232F3E;gradientColor=#F34482;gradientDirection=north;fillColor=#BC1356;strokeColor=#ffffff;dashed=0;verticalLabelPosition=bottom;verticalAlign=top;align=center;html=1;fontSize=12;fontStyle=0;aspect=fixed;shape=mxgraph.aws4.resourceIcon;resIcon=mxgraph.aws4.cloudwatch;labelBackgroundColor=#ffffff;" parent="UEzPUAAOIrF-is8g5C7q-175" vertex="1">
          <mxGeometry x="390" y="19.5" width="78" height="78" as="geometry" />
        </mxCell>
        <mxCell id="46HvSfPG__gokCE_OxBl-28" style="edgeStyle=orthogonalEdgeStyle;rounded=0;orthogonalLoop=1;jettySize=auto;html=1;strokeWidth=2;strokeColor=#808080;startArrow=classic;startFill=1;endArrow=none;endFill=0;flowAnimation=1;" edge="1" parent="UEzPUAAOIrF-is8g5C7q-175" source="UEzPUAAOIrF-is8g5C7q-180" target="46HvSfPG__gokCE_OxBl-3">
          <mxGeometry relative="1" as="geometry">
            <mxPoint x="248" y="205" as="sourcePoint" />
            <mxPoint x="330" y="205" as="targetPoint" />
          </mxGeometry>
        </mxCell>
        <mxCell id="46HvSfPG__gokCE_OxBl-7" value="&lt;font style=&quot;font-size: 16px;&quot;&gt;IAM&lt;/font&gt;&lt;div&gt;&lt;font style=&quot;font-size: 16px;&quot;&gt;Permissions policy&lt;/font&gt;&lt;/div&gt;" style="sketch=0;outlineConnect=0;fontColor=#232F3E;gradientColor=none;fillColor=#DD344C;strokeColor=none;dashed=0;verticalLabelPosition=bottom;verticalAlign=top;align=center;html=1;fontSize=12;fontStyle=0;aspect=fixed;pointerEvents=1;shape=mxgraph.aws4.permissions;" vertex="1" parent="UEzPUAAOIrF-is8g5C7q-175">
          <mxGeometry x="468" y="280" width="62" height="78" as="geometry" />
        </mxCell>
        <mxCell id="46HvSfPG__gokCE_OxBl-9" value="&lt;font style=&quot;font-size: 16px;&quot;&gt;Rest API&lt;/font&gt;" style="sketch=0;points=[[0,0,0],[0.25,0,0],[0.5,0,0],[0.75,0,0],[1,0,0],[0,1,0],[0.25,1,0],[0.5,1,0],[0.75,1,0],[1,1,0],[0,0.25,0],[0,0.5,0],[0,0.75,0],[1,0.25,0],[1,0.5,0],[1,0.75,0]];outlineConnect=0;fontColor=#232F3E;fillColor=#ffffff;strokeColor=#E7157B;dashed=0;verticalLabelPosition=bottom;verticalAlign=top;align=center;html=1;fontSize=12;fontStyle=0;aspect=fixed;shape=mxgraph.aws4.resourceIcon;resIcon=mxgraph.aws4.api_gateway;" vertex="1" parent="UEzPUAAOIrF-is8g5C7q-175">
          <mxGeometry x="80" y="280" width="78" height="78" as="geometry" />
        </mxCell>
        <mxCell id="46HvSfPG__gokCE_OxBl-4" value="&lt;font style=&quot;font-size: 16px;&quot;&gt;&lt;b&gt;Lambda&lt;/b&gt;&lt;/font&gt;" style="sketch=0;points=[[0,0,0],[0.25,0,0],[0.5,0,0],[0.75,0,0],[1,0,0],[0,1,0],[0.25,1,0],[0.5,1,0],[0.75,1,0],[1,1,0],[0,0.25,0],[0,0.5,0],[0,0.75,0],[1,0.25,0],[1,0.5,0],[1,0.75,0]];outlineConnect=0;fontColor=#232F3E;fillColor=#ED7100;strokeColor=#ffffff;dashed=0;verticalLabelPosition=bottom;verticalAlign=top;align=center;html=1;fontSize=12;fontStyle=0;aspect=fixed;shape=mxgraph.aws4.resourceIcon;resIcon=mxgraph.aws4.lambda;" vertex="1" parent="UEzPUAAOIrF-is8g5C7q-175">
          <mxGeometry x="390" y="155.75" width="78" height="78" as="geometry" />
        </mxCell>
        <mxCell id="46HvSfPG__gokCE_OxBl-30" value="&lt;font style=&quot;font-size: 16px;&quot;&gt;Security&lt;/font&gt;" style="points=[[0,0],[0.25,0],[0.5,0],[0.75,0],[1,0],[1,0.25],[1,0.5],[1,0.75],[1,1],[0.75,1],[0.5,1],[0.25,1],[0,1],[0,0.75],[0,0.5],[0,0.25]];outlineConnect=0;gradientColor=none;html=1;whiteSpace=wrap;fontSize=12;fontStyle=0;shape=mxgraph.aws4.group;grIcon=mxgraph.aws4.group_aws_cloud_alt;strokeColor=#232F3E;fillColor=none;verticalAlign=top;align=left;spacingLeft=30;fontColor=#232F3E;labelBackgroundColor=#ffffff;container=1;pointerEvents=0;collapsible=0;recursiveResize=0;" vertex="1" parent="1">
          <mxGeometry x="-2130" y="-780" width="220" height="430" as="geometry" />
        </mxCell>
        <mxCell id="46HvSfPG__gokCE_OxBl-2" value="&lt;font style=&quot;font-size: 16px;&quot;&gt;&lt;b&gt;Cognito&lt;/b&gt;&lt;/font&gt;" style="sketch=0;points=[[0,0,0],[0.25,0,0],[0.5,0,0],[0.75,0,0],[1,0,0],[0,1,0],[0.25,1,0],[0.5,1,0],[0.75,1,0],[1,1,0],[0,0.25,0],[0,0.5,0],[0,0.75,0],[1,0.25,0],[1,0.5,0],[1,0.75,0]];outlineConnect=0;fontColor=#232F3E;fillColor=#DD344C;strokeColor=#ffffff;dashed=0;verticalLabelPosition=bottom;verticalAlign=top;align=center;html=1;fontSize=12;fontStyle=0;aspect=fixed;shape=mxgraph.aws4.resourceIcon;resIcon=mxgraph.aws4.cognito;" vertex="1" parent="46HvSfPG__gokCE_OxBl-30">
          <mxGeometry x="71" y="154.25" width="78" height="78" as="geometry" />
        </mxCell>
        <mxCell id="46HvSfPG__gokCE_OxBl-1" value="&lt;font style=&quot;font-size: 18px;&quot;&gt;&lt;b&gt;Cliente&lt;/b&gt;&lt;/font&gt;" style="points=[[0.35,0,0],[0.98,0.51,0],[1,0.71,0],[0.67,1,0],[0,0.795,0],[0,0.65,0]];verticalLabelPosition=bottom;sketch=0;html=1;verticalAlign=top;aspect=fixed;align=center;pointerEvents=1;shape=mxgraph.cisco19.user;fillColor=#005073;strokeColor=none;" vertex="1" parent="1">
          <mxGeometry x="-2280" y="-620.5" width="70.5" height="70.5" as="geometry" />
        </mxCell>
        <mxCell id="46HvSfPG__gokCE_OxBl-19" style="edgeStyle=orthogonalEdgeStyle;rounded=0;orthogonalLoop=1;jettySize=auto;html=1;entryX=0;entryY=0.5;entryDx=0;entryDy=0;entryPerimeter=0;strokeWidth=2;strokeColor=#808080;startArrow=classic;startFill=1;flowAnimation=1;" edge="1" parent="1" source="46HvSfPG__gokCE_OxBl-1" target="46HvSfPG__gokCE_OxBl-2">
          <mxGeometry relative="1" as="geometry" />
        </mxCell>
        <mxCell id="46HvSfPG__gokCE_OxBl-21" style="edgeStyle=orthogonalEdgeStyle;rounded=0;orthogonalLoop=1;jettySize=auto;html=1;entryX=0;entryY=0.5;entryDx=0;entryDy=0;entryPerimeter=0;strokeWidth=2;strokeColor=#808080;startArrow=classic;startFill=1;flowAnimation=1;" edge="1" parent="1" source="46HvSfPG__gokCE_OxBl-2" target="46HvSfPG__gokCE_OxBl-3">
          <mxGeometry relative="1" as="geometry">
            <mxPoint x="-1580" y="-589.5" as="sourcePoint" />
            <mxPoint x="-1510" y="-589.5" as="targetPoint" />
          </mxGeometry>
        </mxCell>
        <mxCell id="46HvSfPG__gokCE_OxBl-35" value="Data Base" style="points=[[0,0],[0.25,0],[0.5,0],[0.75,0],[1,0],[1,0.25],[1,0.5],[1,0.75],[1,1],[0.75,1],[0.5,1],[0.25,1],[0,1],[0,0.75],[0,0.5],[0,0.25]];outlineConnect=0;gradientColor=none;html=1;whiteSpace=wrap;fontSize=12;fontStyle=0;shape=mxgraph.aws4.group;grIcon=mxgraph.aws4.group_aws_cloud_alt;strokeColor=#232F3E;fillColor=none;verticalAlign=top;align=left;spacingLeft=30;fontColor=#232F3E;dashed=0;labelBackgroundColor=#ffffff;container=1;pointerEvents=0;collapsible=0;recursiveResize=0;" vertex="1" parent="1">
          <mxGeometry x="-1080" y="-780" width="290" height="430" as="geometry" />
        </mxCell>
        <mxCell id="46HvSfPG__gokCE_OxBl-8" value="&lt;font style=&quot;font-size: 16px;&quot;&gt;Table&lt;/font&gt;" style="sketch=0;outlineConnect=0;fontColor=#232F3E;gradientColor=none;fillColor=#0000CC;strokeColor=none;dashed=0;verticalLabelPosition=bottom;verticalAlign=top;align=center;html=1;fontSize=12;fontStyle=0;aspect=fixed;pointerEvents=1;shape=mxgraph.aws4.attributes;" vertex="1" parent="46HvSfPG__gokCE_OxBl-35">
          <mxGeometry x="126" y="290" width="78" height="78" as="geometry" />
        </mxCell>
        <mxCell id="46HvSfPG__gokCE_OxBl-5" value="&lt;font style=&quot;font-size: 16px;&quot;&gt;&lt;b&gt;Dynamo DB&lt;/b&gt;&lt;/font&gt;" style="outlineConnect=0;dashed=0;verticalLabelPosition=bottom;verticalAlign=top;align=center;html=1;shape=mxgraph.aws3.dynamo_db;fillColor=#2E73B8;gradientColor=none;" vertex="1" parent="1">
          <mxGeometry x="-951" y="-625.75" width="72" height="81" as="geometry" />
        </mxCell>
        <mxCell id="46HvSfPG__gokCE_OxBl-29" style="edgeStyle=orthogonalEdgeStyle;rounded=0;orthogonalLoop=1;jettySize=auto;html=1;strokeWidth=2;strokeColor=#808080;startArrow=classic;startFill=1;endArrow=none;endFill=0;dashed=1;flowAnimation=1;" edge="1" parent="1" source="UEzPUAAOIrF-is8g5C7q-180" target="46HvSfPG__gokCE_OxBl-5">
          <mxGeometry relative="1" as="geometry">
            <mxPoint x="-1350" y="-711" as="sourcePoint" />
            <mxPoint x="-1451" y="-614" as="targetPoint" />
          </mxGeometry>
        </mxCell>
        <mxCell id="46HvSfPG__gokCE_OxBl-40" value="" style="edgeStyle=orthogonalEdgeStyle;rounded=0;orthogonalLoop=1;jettySize=auto;html=1;entryX=0;entryY=0.5;entryDx=0;entryDy=0;entryPerimeter=0;exitX=1;exitY=0.5;exitDx=0;exitDy=0;exitPerimeter=0;strokeWidth=2;strokeColor=#808080;flowAnimation=1;" edge="1" parent="1" source="46HvSfPG__gokCE_OxBl-4" target="46HvSfPG__gokCE_OxBl-5">
          <mxGeometry relative="1" as="geometry">
            <mxPoint x="-1460" y="-575" as="targetPoint" />
            <mxPoint x="-1602" y="-575" as="sourcePoint" />
          </mxGeometry>
        </mxCell>
      </root>
    </mxGraphModel>
  </diagram>
</mxfile>
